<svg xmlns="http://www.w3.org/2000/svg" viewBox="0 0 105.4598 89.3566"><defs><style>.a1ad26ff-4e69-4897-8334-5c7bf75598d1{fill:currentColor;}.b60a01e5-835a-423d-aed6-2e4559d2452c{fill:none;stroke:currentColor;stroke-linecap:round;stroke-linejoin:round;stroke-width:2.7px;}</style></defs><g id="ea4ee698-3092-4181-8f93-6f5ef6f0a06e" data-name="Layer 2"><g id="fbad35c4-1902-4926-a054-45147fc7c481" data-name="Screen 3.1"><path class="a1ad26ff-4e69-4897-8334-5c7bf75598d1" d="M92.2193,17.531a2.6,2.6,0,0,0-.2985-.7958,2.4931,2.4931,0,0,0-.3979-.6964c-.199-.199-.2984-.3979-.4974-.5969a1.7852,1.7852,0,0,0-.6964-.4974,2.4926,2.4926,0,0,0-.6963-.3979c-.2985-.0995-.4974-.2985-.7959-.3979a6.851,6.851,0,0,1-.7958-.2985.7548.7548,0,0,1-.398-.1989c-.1-.1-.2984-.1-.3979-.199s-.2985-.0995-.3979-.199l-.2985-.2984a.5168.5168,0,0,1-.1989-.3979.5982.5982,0,0,1-.1-.398v-.4974c0-.1.1-.2984.1-.3979.0994-.1.0994-.2984.1989-.3979l.2985-.2985a.76.76,0,0,1,.4974-.1989.8965.8965,0,0,1,.4974-.0995h.5969a.8968.8968,0,0,1,.4974.0995,4.3152,4.3152,0,0,1,.4974.0994c.0995,0,.2984.0995.3979.0995.199,0,.2985.1.3979.1l.4975.199.0994-.5969.199-1.5917V8.2793L90.6276,8.18c-.1,0-.2985-.1-.398-.1s-.1989-.0995-.3979-.0995a4.3069,4.3069,0,0,0-.4974-.0995c-.199,0-.2984-.1-.4974-.1h-.1v-1.89H86.35v1.99h-.1a3.5337,3.5337,0,0,0-.8954.398,1.7828,1.7828,0,0,0-.6963.4974,4.3253,4.3253,0,0,0-.5969.6963,1.9981,1.9981,0,0,0-.3979.7959l-.2985.8953a3.3839,3.3839,0,0,0-.0995.9948,2.19,2.19,0,0,0,.0995.7959,2.6,2.6,0,0,0,.2985.7958c.0994.199.2984.4974.3979.6964.199.199.2984.3979.4974.5969a1.7842,1.7842,0,0,0,.6964.4974,2.4926,2.4926,0,0,0,.6963.3979,5.9187,5.9187,0,0,1,.7959.3979,6.851,6.851,0,0,1,.7958.2985.7543.7543,0,0,1,.398.199c.1.0994.2984.0994.3979.1989s.199.199.2984.199l.2985.2984c.0995.1.0995.199.199.398a4.3062,4.3062,0,0,1,.0994.4974v.4974a.7542.7542,0,0,1-.1989.3979l-.2985.2984a1.3729,1.3729,0,0,1-.3979.2985c-.1.0995-.2984.0995-.3979.1989a4.3114,4.3114,0,0,1-.4974.0995H86.1509a4.3069,4.3069,0,0,1-.4974-.0995,1.4136,1.4136,0,0,1-.5969-.1989c-.199-.1-.3979-.1-.5969-.199-.0995,0-.1989-.0995-.2984-.0995s-.199-.0994-.2985-.0994l-.5969-.2985-.0994.6964-.199,1.7906v.2985l.2984.0995a1.33,1.33,0,0,1,.8954.1,1.8454,1.8454,0,0,0,.6963.1989c.199.0995.4975.0995.7959.199a2.19,2.19,0,0,0,.7959.0995h.1989v1.99h2.3876V22.6046h.1a3.5378,3.5378,0,0,0,.8953-.3979,3.49,3.49,0,0,0,.7958-.4975,4.32,4.32,0,0,0,.5969-.6963,5.544,5.544,0,0,0,.4974-.7959l.2985-.8953a3.0665,3.0665,0,0,0,.0995-.9948A2.19,2.19,0,0,0,92.2193,17.531Z"/><path class="a1ad26ff-4e69-4897-8334-5c7bf75598d1" d="M80.6794,31.6574a1.6939,1.6939,0,0,0-2.288-.2985L62.2754,44.1921,41.4837,35.5372a1.5869,1.5869,0,0,0-1.4922.1989L17.7077,51.6532a1.59,1.59,0,0,0-.3979,2.1886,1.45,1.45,0,0,0,1.2932.6963,1.6046,1.6046,0,0,0,.8953-.2984L41.0858,38.82l20.8911,8.6548a1.79,1.79,0,0,0,1.5917-.1989l16.8124-13.33A1.694,1.694,0,0,0,80.6794,31.6574Z"/><path class="a1ad26ff-4e69-4897-8334-5c7bf75598d1" d="M103.9581,86.1732H96.5965v-46.06a1.5714,1.5714,0,0,0-1.5917-1.5917H80.381a1.5714,1.5714,0,0,0-1.5917,1.5917v4.81h3.1834V41.705h11.44V86.1732h-11.44V52.0616H78.7893V86.1732h-5.372V56.03a1.5714,1.5714,0,0,0-1.5917-1.5918H57.1024A1.5713,1.5713,0,0,0,55.5107,56.03V86.1732h-5.372v-32.53a1.5714,1.5714,0,0,0-1.5918-1.5917H33.9232a1.5713,1.5713,0,0,0-1.5917,1.5917v32.53H26.96V62.994a1.5714,1.5714,0,0,0-1.5917-1.5917H10.6445A1.5714,1.5714,0,0,0,9.0528,62.994v8.4491h3.1834V64.5857h11.44V86.1732h-11.44V78.581H9.0528v7.5922H1.5917a1.5917,1.5917,0,0,0,0,3.1834H103.8586a1.5713,1.5713,0,0,0,1.5917-1.5917A1.4366,1.4366,0,0,0,103.9581,86.1732Zm-57.0028,0h-11.44V55.2345h11.44Zm23.1791,0H58.694V57.622h11.44Z"/><circle class="a1ad26ff-4e69-4897-8334-5c7bf75598d1" cx="10.6445" cy="71.3739" r="1.5917"/><circle class="a1ad26ff-4e69-4897-8334-5c7bf75598d1" cx="10.6445" cy="78.5198" r="1.5917"/><circle class="a1ad26ff-4e69-4897-8334-5c7bf75598d1" cx="80.3816" cy="44.9236" r="1.5917"/><path class="a1ad26ff-4e69-4897-8334-5c7bf75598d1" d="M81.9733,52.031c0,.8791-.7127.5917-1.5917.5917S78.79,52.91,78.79,52.031a1.5918,1.5918,0,0,1,3.1835,0Z"/><path class="b60a01e5-835a-423d-aed6-2e4559d2452c" d="M101.0981,11.8016a13.8945,13.8945,0,1,1-2.4144-4.9837"/></g></g></svg>