<svg xmlns="http://www.w3.org/2000/svg" viewBox="0 0 95.0977 87.5737"><defs><style>.a1b94b16-86cc-4270-8828-e42a8249c10c{fill:currentColor;stroke:currentColor;stroke-miterlimit:10;stroke-width:0.5px;}</style></defs><g id="aa3777a4-1880-4bbb-9a6e-a09ad9938029" data-name="Layer 2"><g id="aebe3b47-6a8a-4cc6-95a5-97ad773fa4f7" data-name="Screen 3.1"><path class="a1b94b16-86cc-4270-8828-e42a8249c10c" d="M71.8457,5.3486A5.1042,5.1042,0,0,0,66.7471.25H28.3032a5.1042,5.1042,0,0,0-5.0986,5.0986V33.7153a5.1042,5.1042,0,0,0,5.0986,5.0987H66.7471a5.1042,5.1042,0,0,0,5.0986-5.0987ZM69.1133,33.7153a2.3689,2.3689,0,0,1-2.3662,2.3662H28.3032a2.3689,2.3689,0,0,1-2.3662-2.3662V5.3486a2.3689,2.3689,0,0,1,2.3662-2.3662H66.7471a2.3689,2.3689,0,0,1,2.3662,2.3662Z"/><path class="a1b94b16-86cc-4270-8828-e42a8249c10c" d="M54.43,25.6309H32.31a1.3662,1.3662,0,0,0,0,2.7324H54.43a1.3662,1.3662,0,0,0,.0005-2.7324Z"/><path class="a1b94b16-86cc-4270-8828-e42a8249c10c" d="M62.3262,25.63a1.3655,1.3655,0,0,0-.9658,2.3315,1.412,1.412,0,0,0,1.9316,0,1.3662,1.3662,0,0,0-.9658-2.332Z"/><path class="a1b94b16-86cc-4270-8828-e42a8249c10c" d="M62.3262,7.7148H32.31a1.3663,1.3663,0,0,0,0,2.7325H62.3262a1.3663,1.3663,0,0,0,0-2.7325Z"/><path class="a1b94b16-86cc-4270-8828-e42a8249c10c" d="M62.3262,16.6729H32.31a1.3662,1.3662,0,1,0,0,2.7324H62.3262a1.3662,1.3662,0,0,0,0-2.7324Z"/><path class="a1b94b16-86cc-4270-8828-e42a8249c10c" d="M21.771,60.7036H5.3486A5.1042,5.1042,0,0,0,.25,65.8022V82.2251a5.1042,5.1042,0,0,0,5.0986,5.0986H21.771A5.1042,5.1042,0,0,0,26.87,82.2251V65.8022a5.1046,5.1046,0,0,0-5.0986-5.0986Zm0,23.8877H5.3486a2.3689,2.3689,0,0,1-2.3662-2.3662V65.8022A2.369,2.369,0,0,1,5.3486,63.436H21.771a2.369,2.369,0,0,1,2.3662,2.3662l0,16.4229A2.3689,2.3689,0,0,1,21.7715,84.5913Z"/><path class="a1b94b16-86cc-4270-8828-e42a8249c10c" d="M34.2388,82.2251a5.1042,5.1042,0,0,0,5.0986,5.0986H55.76a5.1042,5.1042,0,0,0,5.0986-5.0986V65.8022A5.1042,5.1042,0,0,0,55.76,60.7036H39.3374a5.1042,5.1042,0,0,0-5.0986,5.0986Zm2.7324-16.4229a2.369,2.369,0,0,1,2.3662-2.3662H55.76a2.369,2.369,0,0,1,2.3662,2.3662V82.2251A2.369,2.369,0,0,1,55.76,84.5913H39.3374a2.3689,2.3689,0,0,1-2.3662-2.3662Z"/><path class="a1b94b16-86cc-4270-8828-e42a8249c10c" d="M89.749,60.7036H73.3262a5.1042,5.1042,0,0,0-5.0987,5.0986V82.2251a5.1042,5.1042,0,0,0,5.0987,5.0986H89.749a5.1043,5.1043,0,0,0,5.0987-5.0986V65.8022A5.1043,5.1043,0,0,0,89.749,60.7036Zm2.3662,21.5215a2.3689,2.3689,0,0,1-2.3662,2.3662H73.3262A2.3689,2.3689,0,0,1,70.96,82.2251V65.8022a2.369,2.369,0,0,1,2.3662-2.3662H89.749a2.369,2.369,0,0,1,2.3662,2.3662Z"/><path class="a1b94b16-86cc-4270-8828-e42a8249c10c" d="M82.9038,49.415a3.2363,3.2363,0,0,0-3.2324-3.2324H48.915V43.4194a1.3662,1.3662,0,1,0-2.7324,0v2.7632H37.4473a1.3662,1.3662,0,0,0,0,2.7324h8.7353v5.5889a1.3662,1.3662,0,0,0,2.7324,0V48.915H80.1714v6.3238a1.3662,1.3662,0,0,0,2.7324,0Z"/><path class="a1b94b16-86cc-4270-8828-e42a8249c10c" d="M23.6377,46.1826H15.4258a3.2363,3.2363,0,0,0-3.2324,3.2324v5.8238a1.3662,1.3662,0,0,0,2.7324,0V48.915h8.7114a1.3662,1.3662,0,0,0,0-2.7324Z"/><path class="a1b94b16-86cc-4270-8828-e42a8249c10c" d="M31.4111,46.5835A1.3655,1.3655,0,1,0,29.48,48.5142a1.41,1.41,0,0,0,1.9311,0,1.3638,1.3638,0,0,0,.0005-1.9311Z"/></g></g></svg>