<svg xmlns="http://www.w3.org/2000/svg" viewBox="0 0 110.4818 80.6648"><defs><style>.b875898b-2455-45fc-a5dc-ee83ad9f6d69{fill:currentColor;}.fe21eada-7b9a-454b-a405-d23bfb2dec2a{fill:none;stroke:currentColor;stroke-miterlimit:10;stroke-width:3.1692px;}</style></defs><g id="ff29faff-b765-424a-b6d0-2ac3c85e0156" data-name="Layer 2"><g id="aae632fc-6a2c-4b4f-a1ae-ccf77433f195" data-name="Screen 3.1"><path class="b875898b-2455-45fc-a5dc-ee83ad9f6d69" d="M59.1433,53.7509a1.5955,1.5955,0,0,0-2.2487.1862A25.392,25.392,0,0,1,53.84,56.976a1.5946,1.5946,0,0,0-.5291,1.5825l1.941,8.3844a1.7936,1.7936,0,0,1-1.0053,2.0334l-4.1949,1.8981a1.7938,1.7938,0,0,1-2.1911-.5872L42.844,63.2945a1.5954,1.5954,0,0,0-1.538-.6472,25.3526,25.3526,0,0,1-6.0623.1946,1.5958,1.5958,0,0,0-1.494.7446l-4.5566,7.302a1.7944,1.7944,0,0,1-2.149.7269l-4.3084-1.6243a1.7941,1.7941,0,0,1-1.1343-1.9645l1.3974-8.4929a1.5949,1.5949,0,0,0-.6306-1.5456,25.3469,25.3469,0,0,1-4.4253-4.148,1.5947,1.5947,0,0,0-1.5825-.5292L7.976,55.252a1.7937,1.7937,0,0,1-2.0334-1.0053L4.0445,50.0518a1.7938,1.7938,0,0,1,.5872-2.1911l6.9927-5.0166a1.5956,1.5956,0,0,0,.6472-1.5381,25.3518,25.3518,0,0,1-.1945-6.0622,1.596,1.596,0,0,0-.7447-1.494L4.0311,29.1937a1.7941,1.7941,0,0,1-.7269-2.1489l1.6241-4.3084a1.7942,1.7942,0,0,1,1.9645-1.1343L15.3857,23a1.5953,1.5953,0,0,0,1.5456-.6306,25.3531,25.3531,0,0,1,4.148-4.4253,1.5945,1.5945,0,0,0,.5292-1.5825L19.6674,7.9767a1.7938,1.7938,0,0,1,1.0053-2.0334l4.195-1.8981a1.7937,1.7937,0,0,1,2.191.5872l5.0167,6.9927a1.5954,1.5954,0,0,0,1.538.6472,25.352,25.352,0,0,1,6.0622-.1946,1.5957,1.5957,0,0,0,1.494-.7446l4.5567-7.302a1.7942,1.7942,0,0,1,2.1489-.7269l4.3084,1.6241a1.7942,1.7942,0,0,1,1.1343,1.9645l-1.3974,8.493a1.5946,1.5946,0,0,0,.6306,1.5455,25.3531,25.3531,0,0,1,4.4253,4.148,1.5945,1.5945,0,0,0,1.5825.5292l8.3844-1.9411a1.7938,1.7938,0,0,1,2.0334,1.0054l1.8981,4.1949a1.7936,1.7936,0,0,1-.5872,2.191l-6.9927,5.0167a1.5954,1.5954,0,0,0-.6471,1.5383,25.3977,25.3977,0,0,1,.2863,4.4054,1.5954,1.5954,0,1,0,3.19.0717,28.6041,28.6041,0,0,0-.1895-3.9818l6.2132-4.4573a4.9938,4.9938,0,0,0,1.6332-6.0992l-1.898-4.195a4.9937,4.9937,0,0,0-5.66-2.7988l-7.4494,1.7247a28.5438,28.5438,0,0,0-3.5489-3.3267L56.4658,7.411a4.9936,4.9936,0,0,0-3.1574-5.4686L49,.3183a4.9938,4.9938,0,0,0-5.9816,2.0235L38.97,8.8294a28.5684,28.5684,0,0,0-4.8618.1561L29.651,2.7725a4.9929,4.9929,0,0,0-6.0989-1.6339L19.3572,3.0367a4.9938,4.9938,0,0,0-2.7989,5.6605l1.7247,7.4494a28.55,28.55,0,0,0-3.3266,3.5489L7.411,18.4537a4.9934,4.9934,0,0,0-5.4686,3.1574L.3183,25.92a4.994,4.994,0,0,0,2.0235,5.9817L8.8294,35.95a28.5687,28.5687,0,0,0,.1561,4.8618L2.7724,45.2686a4.9932,4.9932,0,0,0-1.6342,6.0993l1.8981,4.1949a4.9937,4.9937,0,0,0,5.66,2.7988l7.4493-1.7247a28.5522,28.5522,0,0,0,3.5489,3.3267l-1.2416,7.5457a4.9936,4.9936,0,0,0,3.1574,5.4686l4.3084,1.6241a4.994,4.994,0,0,0,5.9817-2.0235l4.0484-6.4876a28.5584,28.5584,0,0,0,4.8618-.1561l4.4573,6.2133a4.9933,4.9933,0,0,0,6.0991,1.6338l4.1949-1.898a4.9936,4.9936,0,0,0,2.7988-5.66L56.6366,58.774A28.5878,28.5878,0,0,0,59.33,56,1.5958,1.5958,0,0,0,59.1433,53.7509Z"/><path class="b875898b-2455-45fc-a5dc-ee83ad9f6d69" d="M53.7057,39.84a1.5943,1.5943,0,0,0,1.6717-1.5155A17.937,17.937,0,0,0,20.76,30.92a1.5955,1.5955,0,0,0,2.9712,1.1636A14.7471,14.7471,0,0,1,52.19,38.1692,1.5955,1.5955,0,0,0,53.7057,39.84Z"/><path class="b875898b-2455-45fc-a5dc-ee83ad9f6d69" d="M21.0382,37.397a1.5953,1.5953,0,0,0-1.4395,1.7375,17.9392,17.9392,0,0,0,33.428,7.236,1.5957,1.5957,0,0,0-2.7708-1.5835,14.7517,14.7517,0,0,1-27.4806-5.9509A1.5948,1.5948,0,0,0,21.0382,37.397Z"/><path class="b875898b-2455-45fc-a5dc-ee83ad9f6d69" d="M82.95,50.268a5.75,5.75,0,0,1,7.601,2.8653,1.5955,1.5955,0,0,0,2.9073-1.3154,8.9351,8.9351,0,1,0-4.4573,11.824,8.852,8.852,0,0,0,4.2064-3.9459,1.5957,1.5957,0,1,0-2.8187-1.4966,5.6888,5.6888,0,0,1-2.7032,2.535A5.7439,5.7439,0,1,1,82.95,50.268Z"/><line class="fe21eada-7b9a-454b-a405-d23bfb2dec2a" x1="63.213" y1="61.4063" x2="67.7669" y2="58.1831"/><path class="b875898b-2455-45fc-a5dc-ee83ad9f6d69" d="M98.463,65.2256c-.14.1911-.381.2482-.5295.4329a16.111,16.111,0,0,1-2.203,2.2486,1.5946,1.5946,0,0,0-.5291,1.5825L96.477,74.999a.63.63,0,0,1-.3533.7144L93.367,76.9608a.6306.6306,0,0,1-.77-.2063l-3.2965-4.5954a1.5954,1.5954,0,0,0-1.538-.6472,16.1034,16.1034,0,0,1-3.8527.1237,1.5957,1.5957,0,0,0-1.494.7447l-2.9943,4.7985a.63.63,0,0,1-.7551.2554L75.8354,76.367a.6309.6309,0,0,1-.3986-.69l.9185-5.5811a1.5951,1.5951,0,0,0-.6306-1.5456,16.0955,16.0955,0,0,1-2.8123-2.6361,1.5947,1.5947,0,0,0-1.5826-.5292L65.82,66.66a.63.63,0,0,1-.7145-.3533L63.8586,63.55a.6307.6307,0,0,1,.2062-.77l.2813-.2018a1.5956,1.5956,0,1,0-1.86-2.5927l-.2813.2019a3.83,3.83,0,0,0-1.2531,4.6781l1.2473,2.7568A3.83,3.83,0,0,0,66.54,69.7693l4.5839-1.0613a19.3257,19.3257,0,0,0,1.9284,1.8078l-.7642,4.6432A3.83,3.83,0,0,0,74.71,79.3534l2.8311,1.0672a3.83,3.83,0,0,0,4.5879-1.552L84.62,74.8763a19.28,19.28,0,0,0,2.6419-.0849l2.7426,3.8232A3.8307,3.8307,0,0,0,94.683,79.868L97.44,78.6206a3.83,3.83,0,0,0,2.1465-4.3415L98.525,69.6952a19.3043,19.3043,0,0,0,1.8077-1.9286Z"/><path class="b875898b-2455-45fc-a5dc-ee83ad9f6d69" d="M104.0963,41.2332l-4.584,1.0614a19.2825,19.2825,0,0,0-1.9286-1.8077l.7643-4.6432a3.83,3.83,0,0,0-2.4217-4.1945L93.0952,30.582a3.83,3.83,0,0,0-4.5879,1.552l-2.4911,3.9923a19.2643,19.2643,0,0,0-2.6419.085l-2.7426-3.8232a3.83,3.83,0,0,0-4.6782-1.2536l-2.7567,1.2474A3.83,3.83,0,0,0,71.05,36.7234l1.0613,4.5839a19.3367,19.3367,0,0,0-1.8078,1.9284l-4.6433-.7642a3.83,3.83,0,0,0-4.1943,2.4217l-1.0673,2.8311a3.83,3.83,0,0,0,1.5521,4.5879l3.9923,2.491a19.2635,19.2635,0,0,0,.21,3.6261,1.5956,1.5956,0,1,0,3.1543-.4834,16.1026,16.1026,0,0,1-.1237-3.8526,1.5959,1.5959,0,0,0-.7446-1.4941L63.6406,49.605a.63.63,0,0,1-.2554-.7551l1.0672-2.8311a.6311.6311,0,0,1,.69-.3986l5.5811.9185a1.5956,1.5956,0,0,0,1.5456-.6307,16.0993,16.0993,0,0,1,2.6362-2.8123,1.5947,1.5947,0,0,0,.5291-1.5826l-1.2756-5.5094a.63.63,0,0,1,.3533-.7144l2.7567-1.2473a.63.63,0,0,1,.77.2062l3.2966,4.5954a1.5957,1.5957,0,0,0,1.538.6473,16.0929,16.0929,0,0,1,3.8527-.1237,1.5961,1.5961,0,0,0,1.494-.7447l2.9943-4.7986a.63.63,0,0,1,.755-.2554l2.8311,1.0672a.6308.6308,0,0,1,.3986.69l-.9184,5.581a1.5947,1.5947,0,0,0,.6306,1.5456,16.1069,16.1069,0,0,1,2.8123,2.6362,1.5947,1.5947,0,0,0,1.5825.5291l5.51-1.2756a.63.63,0,0,1,.7144.3533l1.2473,2.7567a.6306.6306,0,0,1-.2062.77l-4.5955,3.2965a1.5956,1.5956,0,0,0-.6472,1.538,16.0984,16.0984,0,0,1,.1237,3.8527,1.5958,1.5958,0,0,0,.7447,1.494l4.7986,2.9943a.63.63,0,0,1,.2554.7551l-1.0673,2.8311a.6232.6232,0,0,1-.5669.3971l-.2666,3.1777a3.8209,3.8209,0,0,0,3.82-2.45l1.0673-2.8312a3.83,3.83,0,0,0-1.552-4.5878l-3.9924-2.4911a19.2652,19.2652,0,0,0-.0849-2.642l3.8232-2.7426a3.83,3.83,0,0,0,1.2534-4.6781L108.4375,43.38A3.83,3.83,0,0,0,104.0963,41.2332Z"/><ellipse class="b875898b-2455-45fc-a5dc-ee83ad9f6d69" cx="99.162" cy="66.6735" rx="1.633" ry="1.6029" transform="matrix(0.6601, -0.7512, 0.7512, 0.6601, -16.3795, 97.1469)"/><circle class="b875898b-2455-45fc-a5dc-ee83ad9f6d69" cx="105.5056" cy="66.9712" r="1.5981"/></g></g></svg>