<svg xmlns="http://www.w3.org/2000/svg" viewBox="0 0 132.1313 58.09"><defs><style>.ea1f1435-2327-4619-afbf-ceca44c05aca{fill:currentColor;}</style></defs><g id="a06fa760-8379-4234-9751-71ca2028bd29" data-name="Layer 2"><g id="b2ee3a04-962b-46cd-9023-cef6bf51996b" data-name="Screen 3.1"><path class="ea1f1435-2327-4619-afbf-ceca44c05aca" d="M97.9542,6.5815h2.232a1.0971,1.0971,0,1,0,0-2.1938h-2.232a3.32,3.32,0,0,0-3.348,3.2908V8.7754H93.49a1.0971,1.0971,0,1,0,0,2.1938h1.116V14.26a1.1162,1.1162,0,0,0,2.232,0V10.9692h1.116a1.0971,1.0971,0,1,0,0-2.1938h-1.116V7.6785A1.1067,1.1067,0,0,1,97.9542,6.5815Z"/><path class="ea1f1435-2327-4619-afbf-ceca44c05aca" d="M103.5342,0H90.1422a3.32,3.32,0,0,0-3.348,3.2908V5.4846a1.1162,1.1162,0,0,0,2.232,0V3.2908a1.1066,1.1066,0,0,1,1.116-1.097h13.392a1.1066,1.1066,0,0,1,1.116,1.097V16.4539a1.1065,1.1065,0,0,1-1.116,1.0969H90.1422a1.1065,1.1065,0,0,1-1.116-1.0969V9.8723a1.1162,1.1162,0,0,0-2.232,0v6.5816a3.32,3.32,0,0,0,3.348,3.2907h13.392a3.32,3.32,0,0,0,3.348-3.2907V3.2908A3.32,3.32,0,0,0,103.5342,0Z"/><path class="ea1f1435-2327-4619-afbf-ceca44c05aca" d="M96.7736,37.4716a4.4647,4.4647,0,1,0,4.464-4.3877A4.4263,4.4263,0,0,0,96.7736,37.4716Zm6.696,0a2.2323,2.2323,0,1,1-2.232-2.1938A2.2132,2.2132,0,0,1,103.47,37.4716Z"/><path class="ea1f1435-2327-4619-afbf-ceca44c05aca" d="M107.9336,27.5993H94.5416a3.32,3.32,0,0,0-3.348,3.2908V44.0532a3.32,3.32,0,0,0,3.348,3.2907h13.392a3.32,3.32,0,0,0,3.348-3.2907V41.8593a1.1162,1.1162,0,0,0-2.232,0v2.1939a1.1065,1.1065,0,0,1-1.116,1.0969H94.5416a1.1065,1.1065,0,0,1-1.116-1.0969V30.89a1.1066,1.1066,0,0,1,1.116-1.097h13.392a1.1066,1.1066,0,0,1,1.116,1.097v6.5815a1.1162,1.1162,0,0,0,2.232,0V30.89A3.32,3.32,0,0,0,107.9336,27.5993Z"/><path class="ea1f1435-2327-4619-afbf-ceca44c05aca" d="M119.2638,21.0454a1.1271,1.1271,0,0,0,1.0936.0439l6.6961-3.2908a1.0879,1.0879,0,0,0,.4843-1.4764,1.1058,1.1058,0,0,0-.4843-.4761l-6.6961-3.2908a1.1252,1.1252,0,0,0-1.4988.4859,1.0828,1.0828,0,0,0-.1194.49V20.113A1.093,1.093,0,0,0,119.2638,21.0454Zm1.7074-5.7369,3.08,1.5137-3.08,1.5138Z"/><path class="ea1f1435-2327-4619-afbf-ceca44c05aca" d="M122.0872,26.6945a9.9593,9.9593,0,0,0,10.0441-9.8723,10.0455,10.0455,0,0,0-20.0881,0A9.9592,9.9592,0,0,0,122.0872,26.6945Zm0-17.5508a7.68,7.68,0,1,1-7.812,7.6785A7.7462,7.7462,0,0,1,122.0872,9.1437Z"/><path class="ea1f1435-2327-4619-afbf-ceca44c05aca" d="M63.842,10.73l7.49-6.0931a1.3635,1.3635,0,0,0,.186-1.9441,1.4434,1.4434,0,0,0-2.0021-.1849l-7.49,6.0931a1.3629,1.3629,0,0,0-.1876,1.944,1.4376,1.4376,0,0,0,.7619.4665h.0006A1.452,1.452,0,0,0,63.842,10.73Z"/><path class="ea1f1435-2327-4619-afbf-ceca44c05aca" d="M66.2227,17.1679a1.3928,1.3928,0,0,0-.7573.77,1.3467,1.3467,0,0,0,.019,1.047,1.4189,1.4189,0,0,0,.97.8,1.4459,1.4459,0,0,0,.898-.076l8.927-3.7874a1.3915,1.3915,0,0,0,.7572-.7716,1.3457,1.3457,0,0,0-.019-1.045,1.4314,1.4314,0,0,0-1.869-.7254Z"/><path class="ea1f1435-2327-4619-afbf-ceca44c05aca" d="M69.0375,26.98a1.3658,1.3658,0,0,0,.2682,1.0193,1.4269,1.4269,0,0,0,.9515.5507l.43.0987,9.8065.3606a1.4022,1.4022,0,0,0,1.51-1.3018l.003-.075a1.3588,1.3588,0,0,0-.3452-.99,1.424,1.424,0,0,0-.9874-.4747l-9.9755-.3771a1.5469,1.5469,0,0,0-.2163-.0144A1.4228,1.4228,0,0,0,69.0375,26.98Z"/><path class="ea1f1435-2327-4619-afbf-ceca44c05aca" d="M63.209,40.152,57.7212,21.8738a1.4312,1.4312,0,0,0-1.7725-.9453,1.404,1.404,0,0,0-.8533.68,1.3541,1.3541,0,0,0-.11,1.044L60.0346,39.4,26.3423,43.4883l-.2394-.0575-9.19,2.6736a4.4615,4.4615,0,0,1-3.3594-.3484,4.3372,4.3372,0,0,1-2.1208-2.581L9.2251,35.852a4.3483,4.3483,0,0,1,2.967-5.2269l7.9585-2.3191,2.9088,9.6626a1.4046,1.4046,0,0,0,1.0327.9576,1.42,1.42,0,0,0,1.721-1.0162,1.3571,1.3571,0,0,0-.0174-.7192L22.8149,27.32,52.2076,13.2325l.6293,2.09a1.4309,1.4309,0,0,0,1.7719.9463,1.4016,1.4016,0,0,0,.8539-.6792,1.3542,1.3542,0,0,0,.111-1.0449l-1.1041-3.66a1.3889,1.3889,0,0,0-.7886-.8682,1.4457,1.4457,0,0,0-1.2129.0143L20.7542,25.2214l-9.2526,2.6993a7.1346,7.1346,0,0,0-5.1591,7.0712l.0149.4121-2.5457.7254a5.2481,5.2481,0,0,0-3.18,2.5359,5.0921,5.0921,0,0,0-.4156,3.924,5.2626,5.2626,0,0,0,2.56,3.1123,5.3569,5.3569,0,0,0,1.3.486,5.5306,5.5306,0,0,0,2.7563-.0668l2.5364-.7223.2075.3452a6.9908,6.9908,0,0,0,4.4229,3.2017,7.2912,7.2912,0,0,0,3.76-.1017l2.3761-.6854,1.9135,6.3736-.0075.0025.0314.0771.0139.0464.0044-.0015.0032.0079a5.2123,5.2123,0,0,0,4.82,3.4257,5.4272,5.4272,0,0,0,5.2228-6.7733l-.0022-.0084.0039-.0013-.0339-.1137-.0032-.0122,0,0L30.48,45.7427,62.0166,41.906a1.4177,1.4177,0,0,0,1.0137-.62A1.3629,1.3629,0,0,0,63.209,40.152ZM5.9464,43.4349a2.5248,2.5248,0,0,1-.7013.1A2.4989,2.4989,0,0,1,4.07,43.24a2.4026,2.4026,0,0,1-1-3.3034A2.4831,2.4831,0,0,1,4.551,38.7618l2.3705-.6843L8.33,42.7465ZM29.414,52.6977a2.5017,2.5017,0,0,1-2.4989,2.4989,2.4159,2.4159,0,0,1-2.1816-1.4315L22.8221,47.397l4.2143-1.2094.5795.1377,1.78,5.8421.0069.0345a1.6,1.6,0,0,1,.0139.3489C29.4155,52.6,29.414,52.6494,29.414,52.6977Z"/></g></g></svg>