<svg xmlns="http://www.w3.org/2000/svg" viewBox="0 0 410.2 146.83"><defs><style>.cls-1,.cls-2{fill:#fff;}.cls-1{stroke:#fff;stroke-miterlimit:10;}.cls-3{fill:#ffc629;}.cls-4{fill:#e7004c;}.cls-5{fill:#3cb4e5;}</style></defs><g id="Logo_colour" data-name="Logo colour"><path class="cls-1" d="M66.71,105.24a2.53,2.53,0,0,1,.6,1.75,2.4,2.4,0,0,1-1,2.06,4.83,4.83,0,0,1-2.89.72H58.76V99.27h4.38a4.4,4.4,0,0,1,2.66.7,2.32,2.32,0,0,1,1,2,2.44,2.44,0,0,1-.47,1.52,2.63,2.63,0,0,1-1.28.89A2.87,2.87,0,0,1,66.71,105.24Zm-7.19-5.31v4.18h3.59a3.57,3.57,0,0,0,2.12-.53,2,2,0,0,0,0-3.12,3.65,3.65,0,0,0-2.12-.53Zm6.23,8.65a1.84,1.84,0,0,0,.79-1.64,1.81,1.81,0,0,0-.79-1.64,4.15,4.15,0,0,0-2.31-.53H59.52v4.34h3.92A4.15,4.15,0,0,0,65.75,108.58Z"/><path class="cls-1" d="M72,108.69a4.67,4.67,0,0,1-1.1-3.37v-6h.76v6a4.16,4.16,0,0,0,.89,2.9,3.88,3.88,0,0,0,5.11,0,4.16,4.16,0,0,0,.89-2.9v-6h.76v6a4.67,4.67,0,0,1-1.11,3.37,4.72,4.72,0,0,1-6.2,0Z"/><path class="cls-1" d="M84.35,109.45a4.31,4.31,0,0,1-1.62-1l.34-.57a4,4,0,0,0,1.49,1,5.32,5.32,0,0,0,2,.37,3.75,3.75,0,0,0,2.26-.57,1.77,1.77,0,0,0,.77-1.49,1.56,1.56,0,0,0-.41-1.12,2.53,2.53,0,0,0-1-.64,12,12,0,0,0-1.62-.47,14.38,14.38,0,0,1-1.86-.56,2.8,2.8,0,0,1-1.18-.83A2.2,2.2,0,0,1,83,102a2.6,2.6,0,0,1,.41-1.4,2.78,2.78,0,0,1,1.23-1,5.09,5.09,0,0,1,2.08-.38,5.86,5.86,0,0,1,1.71.26,5.06,5.06,0,0,1,1.46.69l-.29.62a4.57,4.57,0,0,0-1.39-.66,4.87,4.87,0,0,0-1.49-.23,3.59,3.59,0,0,0-2.2.58,1.86,1.86,0,0,0-.75,1.52,1.56,1.56,0,0,0,.4,1.13,2.69,2.69,0,0,0,1,.64,15.11,15.11,0,0,0,1.63.48,17.72,17.72,0,0,1,1.85.55,3,3,0,0,1,1.17.82,2.13,2.13,0,0,1,.49,1.48,2.55,2.55,0,0,1-.41,1.4,2.83,2.83,0,0,1-1.27,1,5.22,5.22,0,0,1-2.1.38A6.26,6.26,0,0,1,84.35,109.45Z"/><path class="cls-1" d="M93.86,99.27h.76v10.5h-.76Z"/><path class="cls-1" d="M107.76,99.27v10.5h-.63L100,100.65v9.12h-.77V99.27h.65l7.14,9.12V99.27Z"/><path class="cls-1" d="M119.6,109.08v.69h-7.25V99.27h7V100h-6.25v4.14h5.59v.67h-5.59v4.31Z"/><path class="cls-1" d="M123.88,109.45a4.27,4.27,0,0,1-1.63-1l.35-.57a4,4,0,0,0,1.49,1,5.23,5.23,0,0,0,2,.37,3.78,3.78,0,0,0,2.27-.57,1.76,1.76,0,0,0,.76-1.49,1.55,1.55,0,0,0-.4-1.12,2.57,2.57,0,0,0-1-.64,12,12,0,0,0-1.62-.47,13.7,13.7,0,0,1-1.85-.56,2.83,2.83,0,0,1-1.19-.83,2.24,2.24,0,0,1-.48-1.51,2.59,2.59,0,0,1,.4-1.4,2.76,2.76,0,0,1,1.24-1,5.05,5.05,0,0,1,2.08-.38,5.86,5.86,0,0,1,1.71.26,5,5,0,0,1,1.45.69l-.28.62a4.68,4.68,0,0,0-1.39-.66,4.91,4.91,0,0,0-1.49-.23,3.62,3.62,0,0,0-2.21.58,1.86,1.86,0,0,0-.75,1.52,1.57,1.57,0,0,0,.41,1.13,2.65,2.65,0,0,0,1,.64,15.4,15.4,0,0,0,1.64.48,17.42,17.42,0,0,1,1.84.55,3.14,3.14,0,0,1,1.18.82,2.18,2.18,0,0,1,.49,1.48,2.48,2.48,0,0,1-.42,1.4,2.75,2.75,0,0,1-1.26,1,5.22,5.22,0,0,1-2.1.38A6.22,6.22,0,0,1,123.88,109.45Z"/><path class="cls-1" d="M133.94,109.45a4.31,4.31,0,0,1-1.62-1l.34-.57a4,4,0,0,0,1.49,1,5.32,5.32,0,0,0,2,.37,3.75,3.75,0,0,0,2.26-.57,1.77,1.77,0,0,0,.77-1.49,1.56,1.56,0,0,0-.41-1.12,2.53,2.53,0,0,0-1-.64,12,12,0,0,0-1.62-.47,14.38,14.38,0,0,1-1.86-.56,2.8,2.8,0,0,1-1.18-.83,2.2,2.2,0,0,1-.49-1.51,2.6,2.6,0,0,1,.41-1.4,2.78,2.78,0,0,1,1.23-1,5.09,5.09,0,0,1,2.08-.38,5.86,5.86,0,0,1,1.71.26,5.06,5.06,0,0,1,1.46.69l-.29.62a4.57,4.57,0,0,0-1.39-.66,4.87,4.87,0,0,0-1.49-.23,3.59,3.59,0,0,0-2.2.58,1.86,1.86,0,0,0-.75,1.52,1.56,1.56,0,0,0,.4,1.13,2.69,2.69,0,0,0,1,.64,15.11,15.11,0,0,0,1.63.48,17.72,17.72,0,0,1,1.85.55,3,3,0,0,1,1.17.82,2.13,2.13,0,0,1,.49,1.48,2.55,2.55,0,0,1-.41,1.4,2.83,2.83,0,0,1-1.27,1,5.22,5.22,0,0,1-2.1.38A6.26,6.26,0,0,1,133.94,109.45Z"/><path class="cls-1" d="M155.1,100.21a3.54,3.54,0,0,1,0,5.19,4.72,4.72,0,0,1-3.1.94h-3v3.43h-.77V99.27H152A4.67,4.67,0,0,1,155.1,100.21Zm-.54,4.7a2.58,2.58,0,0,0,.89-2.1,2.61,2.61,0,0,0-.89-2.11A3.91,3.91,0,0,0,152,100h-3v5.69h3A3.91,3.91,0,0,0,154.56,104.91Z"/><path class="cls-1" d="M167,109.08v.69h-7.25V99.27h7V100H160.5v4.14h5.59v.67H160.5v4.31Z"/><path class="cls-1" d="M178,109.77l-2.5-3.51a7.73,7.73,0,0,1-1,.08h-3v3.43h-.76V99.27h3.76a4.68,4.68,0,0,1,3.11.94,3.19,3.19,0,0,1,1.13,2.6,3.22,3.22,0,0,1-2.46,3.29l2.62,3.67Zm-3.53-4.11a3.94,3.94,0,0,0,2.57-.74,2.95,2.95,0,0,0,0-4.22,3.94,3.94,0,0,0-2.57-.74h-3v5.7Z"/><path class="cls-1" d="M183.19,100v4.48h5.6v.7h-5.6v4.63h-.76V99.27h7V100Z"/><path class="cls-1" d="M194.35,109.15a5.07,5.07,0,0,1-1.95-1.92,5.46,5.46,0,0,1,0-5.42,5.07,5.07,0,0,1,1.95-1.92,5.91,5.91,0,0,1,5.58,0,5,5,0,0,1,2,1.9,5.6,5.6,0,0,1,0,5.46,5,5,0,0,1-2,1.9,5.91,5.91,0,0,1-5.58,0Zm5.18-.61a4.39,4.39,0,0,0,1.68-1.66,4.87,4.87,0,0,0,0-4.72,4.39,4.39,0,0,0-1.68-1.66,5.06,5.06,0,0,0-4.78,0,4.42,4.42,0,0,0-1.69,1.66,4.87,4.87,0,0,0,0,4.72,4.42,4.42,0,0,0,1.69,1.66,5.06,5.06,0,0,0,4.78,0Z"/><path class="cls-1" d="M213.48,109.77,211,106.26a7.72,7.72,0,0,1-1,.08h-3v3.43h-.76V99.27H210a4.7,4.7,0,0,1,3.11.94,3.19,3.19,0,0,1,1.12,2.6,3.39,3.39,0,0,1-.63,2.09,3.46,3.46,0,0,1-1.83,1.2l2.63,3.67ZM210,105.66a3.94,3.94,0,0,0,2.57-.74,3,3,0,0,0,0-4.22A3.94,3.94,0,0,0,210,100h-3v5.7Z"/><path class="cls-1" d="M227.85,109.77l0-9-4.39,7.6h-.38l-4.39-7.56v9h-.75V99.27h.64l4.7,8.12,4.7-8.12h.62l0,10.5Z"/><path class="cls-1" d="M239.68,106.82h-6.09l-1.33,3h-.83l4.83-10.5H237l4.83,10.5H241Zm-.28-.65-2.76-6.06-2.75,6.06Z"/><path class="cls-1" d="M253.24,99.27v10.5h-.63l-7.15-9.12v9.12h-.77V99.27h.65l7.14,9.12V99.27Z"/><path class="cls-1" d="M259.49,109.15a5.16,5.16,0,0,1-1.95-1.9,5.6,5.6,0,0,1,0-5.46,5.16,5.16,0,0,1,1.95-1.9,5.65,5.65,0,0,1,2.78-.7,6,6,0,0,1,2.11.37,4.45,4.45,0,0,1,1.63,1.09l-.48.5a4.39,4.39,0,0,0-3.23-1.25,4.82,4.82,0,0,0-2.39.6,4.31,4.31,0,0,0-1.7,1.66,4.8,4.8,0,0,0,0,4.72,4.31,4.31,0,0,0,1.7,1.66,4.82,4.82,0,0,0,2.39.6,4.41,4.41,0,0,0,3.23-1.26l.48.5a4.41,4.41,0,0,1-1.64,1.09,5.8,5.8,0,0,1-2.1.38A5.65,5.65,0,0,1,259.49,109.15Z"/><path class="cls-1" d="M276.75,109.08v.69H269.5V99.27h7V100h-6.25v4.14h5.6v.67h-5.6v4.31Z"/><path class="cls-1" d="M292.13,100.21a3.57,3.57,0,0,1,0,5.19,4.75,4.75,0,0,1-3.11.94h-3v3.43h-.77V99.27H289A4.7,4.7,0,0,1,292.13,100.21Zm-.55,4.7a2.58,2.58,0,0,0,.89-2.1,2.61,2.61,0,0,0-.89-2.11A3.89,3.89,0,0,0,289,100h-3v5.69h3A3.89,3.89,0,0,0,291.58,104.91Z"/><path class="cls-1" d="M296.76,99.27h.76v9.81h6.05v.69h-6.81Z"/><path class="cls-1" d="M313,106.82h-6.09l-1.33,3h-.83l4.83-10.5h.77l4.83,10.5h-.83Zm-.28-.65-2.76-6.06-2.75,6.06Z"/><path class="cls-1" d="M319.47,100h-3.78v-.69H324V100h-3.77v9.81h-.77Z"/><path class="cls-1" d="M327.6,100v4.48h5.6v.7h-5.6v4.63h-.77V99.27h7V100Z"/><path class="cls-1" d="M338.76,109.15a5.16,5.16,0,0,1-2-1.92,5.53,5.53,0,0,1,0-5.42,5.16,5.16,0,0,1,2-1.92,5.91,5.91,0,0,1,5.58,0,5.11,5.11,0,0,1,2,1.9,5.6,5.6,0,0,1,0,5.46,5.11,5.11,0,0,1-2,1.9,5.91,5.91,0,0,1-5.58,0Zm5.17-.61a4.39,4.39,0,0,0,1.68-1.66,4.8,4.8,0,0,0,0-4.72,4.39,4.39,0,0,0-1.68-1.66,5,5,0,0,0-4.77,0,4.35,4.35,0,0,0-1.69,1.66,4.8,4.8,0,0,0,0,4.72,4.35,4.35,0,0,0,1.69,1.66,5,5,0,0,0,4.77,0Z"/><path class="cls-1" d="M357.89,109.77l-2.51-3.51a7.72,7.72,0,0,1-1,.08h-3v3.43h-.76V99.27h3.76a4.7,4.7,0,0,1,3.11.94,3.19,3.19,0,0,1,1.12,2.6,3.33,3.33,0,0,1-.64,2.09,3.39,3.39,0,0,1-1.82,1.2l2.63,3.67Zm-3.53-4.11a3.94,3.94,0,0,0,2.57-.74,3,3,0,0,0,0-4.22,3.94,3.94,0,0,0-2.57-.74h-3v5.7Z"/><path class="cls-1" d="M372.25,109.77v-9l-4.4,7.6h-.37l-4.39-7.56v9h-.75V99.27H363l4.7,8.12,4.69-8.12H373v10.5Z"/><path class="cls-2" d="M125.92,52.32a18.3,18.3,0,0,1,18.27,18.23,18.3,18.3,0,0,1-18.27,18.27c-.34,0-.68,0-1,0s-.73,0-1.07,0A18.25,18.25,0,0,1,105.6,70.55a18.25,18.25,0,0,1,18.24-18.23l1.07,0C125.24,52.33,125.58,52.32,125.92,52.32Zm-1,27.87A7.85,7.85,0,0,0,131,77.33a10.43,10.43,0,0,0,0-13.57,8,8,0,0,0-12.18,0,10.36,10.36,0,0,0,0,13.57A7.88,7.88,0,0,0,124.91,80.19Z"/><path class="cls-2" d="M169.56,52a2.13,2.13,0,0,1,2.08,2.55l-.82,3.7q-.54,3.48-2.7,3.08A8.09,8.09,0,0,0,162,63.08q-2.69,2-3.08,4a5.87,5.87,0,0,0-.11.86v0h0V83.22a5.57,5.57,0,0,1-5.53,5.52h-.1a5.57,5.57,0,0,1-5.53-5.52V58.71a5.51,5.51,0,0,1,5.56-5.57h.18c2.06,0,3.91,1.21,5.57,3.63a8.93,8.93,0,0,1,2.33-2.62C163.21,52.74,166,52,169.56,52Z"/><path class="cls-2" d="M205.93,80.35a4.82,4.82,0,0,1,.38,5.24A4.49,4.49,0,0,1,202,88.35h-.14a4.46,4.46,0,0,1-4.08-2.41l-9.13-13.49-1.47,1.47V82.5a5.77,5.77,0,0,1-1.65,4.13,5.23,5.23,0,0,1-4,1.72h-.1a5.21,5.21,0,0,1-3.94-1.72,5.77,5.77,0,0,1-1.65-4.13V42.38a5.75,5.75,0,0,1,1.65-4.13,5.18,5.18,0,0,1,3.94-1.72h.1a5.2,5.2,0,0,1,4,1.72,5.75,5.75,0,0,1,1.65,4.13V59.1c0,.46.21.61.65.47a2.39,2.39,0,0,0,1.13-.79l9.54-10.41a4.08,4.08,0,0,1,3.26-1.54h.1a4,4,0,0,1,3.88,2.58,4.3,4.3,0,0,1-.59,4.77l-9,10.81Z"/><path class="cls-2" d="M234.9,42.59A4.43,4.43,0,0,1,231,46c-2.78.5-4.16,2.19-4.16,5.06v2.47h3.27a4.38,4.38,0,0,1,3.09,1.19,3.79,3.79,0,0,1,1.23,2.83v.08a3.73,3.73,0,0,1-1.23,2.83,4.37,4.37,0,0,1-3.09,1.18h-3.27V83.76a4.77,4.77,0,0,1-1.66,3.69,5.53,5.53,0,0,1-4,1.55h-.11a5.62,5.62,0,0,1-4-1.55,4.83,4.83,0,0,1-1.62-3.69V61.68h-1.12a4.3,4.3,0,0,1-3-1.18,3.66,3.66,0,0,1-1.27-2.83v-.08a3.72,3.72,0,0,1,1.27-2.83,4.31,4.31,0,0,1,3-1.19h1.12V49.09a10.18,10.18,0,0,1,3.93-8.36q3.74-3,10.33-3.7a4.81,4.81,0,0,1,4.08,1.51,4,4,0,0,1,1.08,4Z"/><path class="cls-2" d="M237.32,70.66a17.92,17.92,0,0,1,5.06-12.85,16.24,16.24,0,0,1,12.2-5.31q6,0,8.36,5.31v0a4.17,4.17,0,0,1,4.17-4.16h2.94a4.22,4.22,0,0,1,4.23,4.2V86.48a2.12,2.12,0,0,1-.68,1.62,2.21,2.21,0,0,1-1.61.68h-4.74c-.72,0-1.69-.66-2.91-2a3.05,3.05,0,0,0-1.86-1,3,3,0,0,0-2.05.46q-3.81,2.48-5.85,2.48a16.24,16.24,0,0,1-12.2-5.31A17.87,17.87,0,0,1,237.32,70.66Zm10.76-.29a11.22,11.22,0,0,0,2.16,6.93,6.49,6.49,0,0,0,5.27,2.83,7.64,7.64,0,0,0,3.66-.32q3.66-1.26,3.77-5.71v-9c-.55-1.48-1.86-2.63-3.95-3.45a8.58,8.58,0,0,0-7.17.36,6,6,0,0,0-2.77,3.09,11.71,11.71,0,0,0-1,4.81Z"/><path class="cls-2" d="M306.83,84.51A4,4,0,0,1,306,87a3.71,3.71,0,0,1-2.11,1.44,21.06,21.06,0,0,1-5.6.75,19.88,19.88,0,0,1-14-5.31,17.05,17.05,0,0,1,0-25.66,19.88,19.88,0,0,1,14-5.31,21.06,21.06,0,0,1,5.6.75A4,4,0,0,1,306,55a4.14,4.14,0,0,1,.79,2.45v.28a4,4,0,0,1-4.95,3.95,13,13,0,0,0-7.57.68,6.54,6.54,0,0,0-3.37,3.09,9.51,9.51,0,0,0-1.23,4.81v.43a9.63,9.63,0,0,0,2.7,6.89,8.44,8.44,0,0,0,6.42,2.87,12,12,0,0,0,3.3-.11,3.9,3.9,0,0,1,3.27.94,3.85,3.85,0,0,1,1.43,3.08Z"/><path class="cls-2" d="M330.31,79.52a2.82,2.82,0,0,1,1.54,2.23,5.87,5.87,0,0,1-.36,3.08q-1.47,3.94-4.2,4a9.63,9.63,0,0,1-9.12-5.6q-2.32-4.49-2.36-12.13V60.43H314.3a3.69,3.69,0,0,1-3.7-3.7v-.07a3.76,3.76,0,0,1,3.7-3.7h1.51V49.91A5.26,5.26,0,0,1,318,45.53a5.2,5.2,0,0,1,4.77-.93l.15,0a5.13,5.13,0,0,1,2.9,1.94,5.32,5.32,0,0,1,1.15,3.33V53h3.3a3.81,3.81,0,0,1,3.7,3.7v.07a3.74,3.74,0,0,1-3.7,3.7h-3.3V71.77Q326.93,77.8,330.31,79.52Z"/><path class="cls-2" d="M336.62,70.66a18,18,0,0,1,5.06-12.85,16.25,16.25,0,0,1,12.2-5.31q6,0,8.37,5.31v0a4.17,4.17,0,0,1,4.16-4.16h2.94a4.23,4.23,0,0,1,4.24,4.2V86.48a2.15,2.15,0,0,1-.68,1.62,2.25,2.25,0,0,1-1.62.68h-4.74c-.72,0-1.68-.66-2.9-2a3.08,3.08,0,0,0-1.87-1,3,3,0,0,0-2,.46q-3.8,2.48-5.85,2.48a16.25,16.25,0,0,1-12.2-5.31A17.91,17.91,0,0,1,336.62,70.66Zm10.77-.29a11.28,11.28,0,0,0,2.15,6.93,6.49,6.49,0,0,0,5.28,2.83,7.64,7.64,0,0,0,3.66-.32c2.44-.84,3.69-2.74,3.77-5.71v-9q-.83-2.22-3.95-3.45a8.61,8.61,0,0,0-7.18.36,6,6,0,0,0-2.76,3.09,11.55,11.55,0,0,0-1,4.81Z"/><path class="cls-3" d="M50.68,47.82h.8a6.84,6.84,0,0,1,6.84,6.84V84.38a6.83,6.83,0,0,1-6.83,6.83h-.8a6.83,6.83,0,0,1-6.83-6.83V54.65A6.83,6.83,0,0,1,50.68,47.82Z" transform="translate(-27.92 34.86) rotate(-30)"/><path class="cls-4" d="M62,50.53a7.25,7.25,0,1,1-2.65,9.89A7.2,7.2,0,0,1,62,50.53Z"/><path class="cls-5" d="M65.75,66.69a9.76,9.76,0,0,0,4.83-1.29,9.53,9.53,0,0,0,3.61-3.63A14.43,14.43,0,0,0,75,59.83a.37.37,0,0,1,.68-.07l3.84,6.59a1,1,0,0,0,1.65,0l1.32-2.27L97,39c1.58-2.71,6.07-3.09,8.8-1.52l.64.39A6.76,6.76,0,0,1,109,47.1L87.34,84.4s-1.52,2.48-1.86,2.84a6.84,6.84,0,0,1-5.1,2.18h-.14a6.88,6.88,0,0,1-5.1-2.18c-.33-.36-1.85-2.84-1.85-2.84L63.14,67a.38.38,0,0,1,.41-.55A9.52,9.52,0,0,0,65.75,66.69Z"/></g></svg>