<?xml version="1.0" encoding="utf-8"?>
<!-- Generator: Adobe Illustrator 25.2.3, SVG Export Plug-In . SVG Version: 6.00 Build 0)  -->
<svg version="1.1" xmlns="http://www.w3.org/2000/svg" xmlns:xlink="http://www.w3.org/1999/xlink" x="0px" y="0px"
	 viewBox="0 0 410.2 71.5" style="enable-background:new 0 0 410.2 71.5;" xml:space="preserve">
<style type="text/css">
	.st0{display:none;}
	.st1{display:inline;}
	.st2{display:inline;fill:#243746;}
	.st3{fill:#243746;}
	.st4{fill:#FFC629;}
	.st5{fill:#E7004C;}
	.st6{fill:#3CB4E5;}
</style>
<g id="Colour_codes">
	<g id="CMYK">
	</g>
	<g id="RGB">
	</g>
	<g id="HEX">
	</g>
	<g id="PANTONE">
	</g>
</g>
<g id="guides" class="st0">
	<g id="Layer_3" class="st1">
	</g>
	<g class="st1">
	</g>
</g>
<g id="Background" class="st0">
	<rect x="-2.4" y="-35" class="st2" width="415.5" height="153.6"/>
</g>
<g id="Logo_colour">
	<g>
		<g>
			<path class="st3" d="M112,23.7c6,0,11.1,2.1,15.4,6.4c4.3,4.3,6.4,9.4,6.4,15.3c0,6-2.1,11.1-6.4,15.4c-4.2,4.3-9.3,6.4-15.4,6.4
				c-0.4,0-0.8,0-1.2,0c-0.4,0-0.9,0-1.3,0c-6,0-11.1-2.1-15.4-6.4c-4.2-4.2-6.3-9.3-6.3-15.4c0-6,2.1-11.1,6.3-15.3
				c4.3-4.3,9.4-6.4,15.4-6.4c0.4,0,0.8,0,1.3,0C111.1,23.8,111.5,23.7,112,23.7z M110.8,56.9c2.8,0,5.2-1.1,7.2-3.4
				c2-2.2,3-4.9,3-8.1c0-3.1-1-5.8-3-8.1c-2-2.2-4.4-3.4-7.2-3.4s-5.2,1.1-7.2,3.4s-3,4.9-3,8.1c0,3.1,1,5.8,3,8.1
				C105.5,55.8,107.9,56.9,110.8,56.9z"/>
			<path class="st3" d="M163.9,23.4c0.8,0,1.5,0.3,2,0.9c0.5,0.6,0.7,1.3,0.5,2.1l-1,4.4c-0.4,2.8-1.5,4-3.2,3.7
				c-2.5-0.4-4.9,0.3-7.3,2.1c-2.1,1.6-3.4,3.1-3.7,4.7c-0.1,0.3-0.1,0.6-0.1,1v0h0v18.2c0,1.8-0.6,3.3-1.9,4.6
				c-1.3,1.3-2.8,2-4.7,2h-0.1c-1.8,0-3.4-0.7-4.7-2c-1.3-1.3-1.9-2.8-1.9-4.6V31.3c0-1.8,0.6-3.4,1.9-4.7c1.3-1.3,2.9-1.9,4.7-1.9
				h0.2c2.4,0,4.7,1.4,6.6,4.3c0.9-1.5,1.9-2.5,2.8-3.1C156.3,24.2,159.7,23.4,163.9,23.4z"/>
			<path class="st3" d="M207.2,57.1c1.4,2,1.5,4,0.5,6.2c-1.1,2.2-2.8,3.3-5.1,3.3h-0.2c-2.1,0-3.7-1-4.9-2.9l-10.9-16.1l-1.8,1.8
				v10.2c0,1.9-0.7,3.5-2,4.9c-1.3,1.4-2.8,2.1-4.7,2.1h-0.1c-1.9,0-3.4-0.7-4.7-2.1c-1.3-1.4-2-3-2-4.9V11.9c0-1.9,0.7-3.5,2-4.9
				c1.3-1.4,2.8-2.1,4.7-2.1h0.1c1.9,0,3.4,0.7,4.7,2.1c1.3,1.4,2,3,2,4.9v19.9c0,0.5,0.3,0.7,0.8,0.6c0.5-0.1,0.9-0.5,1.3-0.9
				L198.4,19c1-1.2,2.3-1.8,3.9-1.8h0.1c2.2,0,3.7,1,4.6,3.1c0.9,2.1,0.7,3.9-0.7,5.7l-10.7,12.9L207.2,57.1z"/>
			<path class="st3" d="M241.7,12.2c-0.6,2.3-2.1,3.6-4.7,4.1c-3.3,0.6-5,2.6-5,6v2.9h3.9c1.4,0,2.7,0.5,3.7,1.4
				c1,0.9,1.5,2.1,1.5,3.4v0.1c0,1.3-0.5,2.5-1.5,3.4c-1,0.9-2.2,1.4-3.7,1.4H232v26.3c0,1.7-0.7,3.2-2,4.4
				c-1.3,1.2-2.9,1.8-4.7,1.8h-0.1c-1.8,0-3.4-0.6-4.7-1.8c-1.3-1.2-1.9-2.7-1.9-4.4V34.9h-1.3c-1.4,0-2.6-0.5-3.6-1.4
				c-1-0.9-1.5-2-1.5-3.4V30c0-1.3,0.5-2.4,1.5-3.4c1-0.9,2.2-1.4,3.6-1.4h1.3v-5.3c0-4.1,1.6-7.4,4.7-10c3-2.4,7.1-3.9,12.3-4.4
				c1.9-0.2,3.5,0.4,4.9,1.8C241.7,8.7,242.1,10.3,241.7,12.2L241.7,12.2z"/>
			<path class="st3" d="M244.6,45.6c0-6,2-11.1,6-15.3c4-4.2,8.9-6.3,14.5-6.3c4.8,0,8.1,2.1,10,6.3v0c0-1.4,0.5-2.5,1.5-3.5
				s2.1-1.5,3.5-1.5h3.5c1.4,0,2.6,0.5,3.5,1.5c1,1,1.5,2.2,1.5,3.5v34.1c0,0.8-0.3,1.4-0.8,1.9c-0.5,0.5-1.2,0.8-1.9,0.8h-5.6
				c-0.9,0-2-0.8-3.5-2.3c-0.6-0.7-1.4-1-2.2-1.2c-0.9-0.1-1.7,0.1-2.4,0.6c-3,2-5.3,2.9-7,2.9c-5.7,0-10.5-2.1-14.5-6.3
				C246.6,56.6,244.6,51.5,244.6,45.6z M257.4,45.2c0,3.2,0.9,6,2.6,8.2c1.7,2.3,3.8,3.4,6.3,3.4c1.5,0.2,2.9,0.1,4.4-0.4
				c2.9-1,4.4-3.3,4.5-6.8V39c-0.7-1.8-2.2-3.1-4.7-4.1c-2.8-1.1-5.7-1-8.5,0.4c-1.4,0.7-2.5,1.9-3.3,3.7c-0.8,1.7-1.2,3.6-1.2,5.7
				V45.2z"/>
			<path class="st3" d="M327.3,62.1c0,1.1-0.3,2.1-0.9,2.9c-0.7,0.9-1.5,1.5-2.5,1.7c-2.2,0.6-4.4,0.9-6.7,0.9
				c-6.5,0-12-2.1-16.6-6.3c-4.6-4.2-6.9-9.3-6.9-15.3c0-6,2.3-11.1,6.9-15.3c4.6-4.2,10.1-6.3,16.6-6.3c2.3,0,4.5,0.3,6.7,0.9
				c1,0.3,1.9,0.9,2.5,1.7c0.6,0.9,0.9,1.9,0.9,2.9v0.3c0,1.5-0.6,2.8-1.8,3.8c-1.2,1-2.6,1.3-4.1,0.9c-3-0.6-6.1-0.4-9,0.8
				c-1.7,0.7-3,1.9-4,3.7c-1,1.7-1.5,3.6-1.5,5.7v0.5c0,3.2,1.1,6,3.2,8.2c2.1,2.3,4.7,3.4,7.6,3.4c1.2,0.1,2.5,0.1,3.9-0.1
				c1.5-0.2,2.7,0.1,3.9,1.1c1.1,1,1.7,2.2,1.7,3.7V62.1z"/>
			<path class="st3" d="M355.2,56.1c1,0.5,1.6,1.4,1.8,2.6c0.2,1.1,0.1,2.3-0.4,3.7c-1.2,3.1-2.8,4.7-5,4.7c-4.9,0-8.5-2.2-10.9-6.7
				c-1.9-3.6-2.8-8.4-2.8-14.4V33.4h-1.8c-1.2,0-2.3-0.4-3.1-1.3c-0.9-0.9-1.3-1.9-1.3-3.1v-0.1c0-1.2,0.4-2.2,1.3-3.1
				c0.9-0.9,1.9-1.3,3.1-1.3h1.8v-3.6c0-2.2,0.9-3.9,2.6-5.2c1.7-1.3,3.6-1.7,5.7-1.1l0.2,0c1.4,0.4,2.6,1.1,3.5,2.3
				c0.9,1.2,1.4,2.5,1.4,4v3.6h3.9c1.2,0,2.2,0.4,3.1,1.3c0.9,0.9,1.3,1.9,1.3,3.1V29c0,1.2-0.4,2.3-1.3,3.1
				c-0.9,0.9-1.9,1.3-3.1,1.3h-3.9v13.5C351.2,51.7,352.6,54.8,355.2,56.1z"/>
			<path class="st3" d="M362.8,45.6c0-6,2-11.1,6-15.3c4-4.2,8.9-6.3,14.5-6.3c4.8,0,8.1,2.1,10,6.3v0c0-1.4,0.5-2.5,1.5-3.5
				c1-1,2.1-1.5,3.5-1.5h3.5c1.4,0,2.6,0.5,3.5,1.5c1,1,1.5,2.2,1.5,3.5v34.1c0,0.8-0.3,1.4-0.8,1.9c-0.5,0.5-1.2,0.8-1.9,0.8h-5.6
				c-0.9,0-2-0.8-3.5-2.3c-0.6-0.7-1.4-1-2.2-1.2c-0.9-0.1-1.7,0.1-2.4,0.6c-3,2-5.3,2.9-7,2.9c-5.7,0-10.5-2.1-14.5-6.3
				C364.8,56.6,362.8,51.5,362.8,45.6z M375.6,45.2c0,3.2,0.9,6,2.6,8.2c1.7,2.3,3.8,3.4,6.3,3.4c1.5,0.2,2.9,0.1,4.4-0.4
				c2.9-1,4.4-3.3,4.5-6.8V39c-0.7-1.8-2.2-3.1-4.7-4.1c-2.8-1.1-5.7-1-8.5,0.4c-1.4,0.7-2.5,1.9-3.3,3.7c-0.8,1.7-1.2,3.6-1.2,5.7
				V45.2z"/>
		</g>
		<path class="st4" d="M24.3,63.8c2.2,3.9,7.2,5.2,11.1,3l0.8-0.5c3.9-2.2,5.2-7.2,3-11.1L21.5,24.6c-2.2-3.9-7.2-5.2-11.1-3
			l-0.8,0.5c-3.9,2.2-5.2,7.2-3,11.1L24.3,63.8z"/>
		<path class="st5" d="M35.8,21.6c1.3-0.8,2.8-1.2,4.3-1.2c3.1,0,5.9,1.7,7.5,4.3c1.2,2,1.5,4.3,0.9,6.5c-0.6,2.2-2,4.1-4,5.2
			c-1.3,0.8-2.8,1.2-4.3,1.2c-3.1,0-5.9-1.7-7.5-4.3C30.3,29.3,31.7,24,35.8,21.6z"/>
		<path class="st6" d="M40.3,40.8c2,0,4-0.5,5.8-1.5c1.8-1,3.3-2.5,4.3-4.3c0.3-0.5,0.7-1.5,0.9-2.3c0.1-0.4,0.6-0.4,0.8-0.1
			l4.6,7.8c0.4,0.8,1.5,0.8,2,0l1.6-2.7L77.5,7.8C79.4,4.6,84.8,4.2,88,6l0.8,0.5c3.9,2.2,5.3,7.2,3,11L66,61.9c0,0-1.8,3-2.2,3.4
			c-1.6,1.7-3.8,2.6-6.1,2.6c0,0-0.1,0-0.1,0c0,0-0.1,0-0.1,0c-2.3,0-4.5-0.9-6.1-2.6c-0.4-0.4-2.2-3.4-2.2-3.4L37.2,41.2
			c-0.2-0.3,0.1-0.7,0.5-0.6C38.6,40.7,39.4,40.8,40.3,40.8z"/>
	</g>
</g>
</svg>
